<svg width="485.701" height="75.201" viewBox="0 0 485.701 75.201" xmlns="http://www.w3.org/2000/svg"><g id="svgGroup" stroke-linecap="round" fill-rule="evenodd" font-size="9pt" stroke="#000" stroke-width="0.25mm" fill="#fff9f9" style="stroke:#000;stroke-width:0.25mm;fill:#fff9f9"><path d="M 227.001 55.8 L 227.001 22 L 236.001 22 L 236.001 54.6 A 22.981 22.981 0 0 0 236.255 58.134 Q 236.543 59.981 237.157 61.469 A 10.136 10.136 0 0 0 238.601 63.95 A 8.404 8.404 0 0 0 243.714 66.971 A 12.807 12.807 0 0 0 246.201 67.2 Q 250.301 67.2 254.151 65.55 Q 258.001 63.9 261.001 61.1 L 261.001 22 L 270.001 22 L 270.001 60.5 A 15.602 15.602 0 0 0 270.102 62.354 Q 270.434 65.116 271.851 66.15 Q 273.701 67.5 275.901 67.5 L 274.001 74.5 Q 264.701 74.5 262.501 67.1 Q 259.001 70.7 254.401 72.95 Q 249.801 75.2 244.501 75.2 Q 240.001 75.2 236.001 73.3 A 14.441 14.441 0 0 1 230.491 68.661 A 18.266 18.266 0 0 1 229.501 67.15 A 16.24 16.24 0 0 1 227.836 63.057 Q 227.001 59.905 227.001 55.8 Z M 296.901 74 L 287.901 74 L 287.901 22 L 296.601 22 L 296.601 30.7 Q 299.401 26.5 303.751 23.65 A 17.316 17.316 0 0 1 310.856 21.025 A 22.629 22.629 0 0 1 314.101 20.8 A 23.225 23.225 0 0 1 319.166 21.318 Q 324.26 22.456 327.251 26.1 Q 331.376 31.126 331.589 39.209 A 33.764 33.764 0 0 1 331.601 40.1 L 331.601 74 L 322.601 74 L 322.601 41.1 A 19.265 19.265 0 0 0 322.258 37.359 Q 321.82 35.145 320.82 33.397 A 10.966 10.966 0 0 0 319.951 32.1 A 8.579 8.579 0 0 0 313.674 28.747 A 12.061 12.061 0 0 0 312.601 28.7 A 13.122 13.122 0 0 0 305.751 30.664 A 17.353 17.353 0 0 0 303.901 31.95 Q 299.801 35.2 296.901 39.6 L 296.901 74 Z M 129.701 74 L 120.201 74 L 120.201 4 L 161.701 4 L 161.701 12.2 L 129.701 12.2 L 129.701 33.6 L 156.401 33.6 L 156.401 41.4 L 129.701 41.4 L 129.701 74 Z M 48.901 6.4 L 46.001 14.4 Q 42.901 12.9 39.651 12 Q 36.858 11.227 33.215 11.118 A 40.705 40.705 0 0 0 32.001 11.1 A 21.173 21.173 0 0 0 24.096 12.555 A 19.981 19.981 0 0 0 20.551 14.4 A 21.167 21.167 0 0 0 14.185 20.981 A 26.978 26.978 0 0 0 12.601 23.9 Q 9.701 30.1 9.701 38.9 Q 9.701 47.3 12.551 53.6 A 25.677 25.677 0 0 0 16.137 59.428 A 21.423 21.423 0 0 0 20.451 63.4 A 19.703 19.703 0 0 0 31.596 66.897 A 23.894 23.894 0 0 0 32.001 66.9 A 33.715 33.715 0 0 0 35.972 66.678 Q 38.448 66.384 40.501 65.7 Q 44.101 64.5 47.501 62.6 L 50.401 70.5 A 37.561 37.561 0 0 1 45.906 72.544 A 47.894 47.894 0 0 1 41.951 73.85 A 33.592 33.592 0 0 1 36.985 74.841 Q 34.504 75.155 31.706 75.194 A 57.414 57.414 0 0 1 30.901 75.2 A 32.384 32.384 0 0 1 21.576 73.899 A 27.961 27.961 0 0 1 14.801 70.85 A 28.6 28.6 0 0 1 4.924 60.405 A 34.916 34.916 0 0 1 3.901 58.45 A 37.611 37.611 0 0 1 0.801 48.733 Q 0.026 44.467 0.001 39.614 A 62.816 62.816 0 0 1 0.001 39.3 Q 0.001 28.6 3.951 20.35 Q 7.901 12.1 15.151 7.45 A 29.371 29.371 0 0 1 27.831 3.039 A 37.292 37.292 0 0 1 32.101 2.8 A 45.639 45.639 0 0 1 37.159 3.068 A 35.2 35.2 0 0 1 41.201 3.75 A 38.224 38.224 0 0 1 48.675 6.294 A 35.605 35.605 0 0 1 48.901 6.4 Z M 466.201 71.5 L 457.501 75 L 449.701 55 L 417.301 55 L 409.501 74.8 L 401.401 71.5 L 428.801 4 L 439.201 4 L 466.201 71.5 Z M 381.501 27.2 L 381.501 0 L 390.501 0 L 390.501 61.4 A 12.15 12.15 0 0 0 390.602 63.036 Q 390.934 65.47 392.351 66.35 Q 394.201 67.5 396.401 67.5 L 394.501 74.5 Q 385.001 74.5 382.901 66.9 Q 380.701 70 376.751 72.6 Q 372.801 75.2 366.801 75.2 Q 360.401 75.2 355.101 71.9 A 22.692 22.692 0 0 1 347.563 64.109 A 27.622 27.622 0 0 1 346.701 62.55 A 27.533 27.533 0 0 1 344.112 54.608 A 37.221 37.221 0 0 1 343.601 48.3 A 33.94 33.94 0 0 1 344.49 40.386 A 27.963 27.963 0 0 1 346.751 34.2 A 27.291 27.291 0 0 1 351.37 27.609 A 24.186 24.186 0 0 1 355.151 24.4 Q 360.401 20.8 366.701 20.8 A 21.642 21.642 0 0 1 370.973 21.202 A 15.942 15.942 0 0 1 375.651 22.9 A 34.343 34.343 0 0 1 378.231 24.489 Q 379.454 25.324 380.426 26.174 A 16.59 16.59 0 0 1 381.501 27.2 Z M 68.001 71.75 A 24.559 24.559 0 0 0 72.599 73.84 Q 76.654 75.2 81.301 75.2 Q 88.701 75.2 94.551 71.8 Q 100.401 68.4 103.801 62.25 A 26.255 26.255 0 0 0 106.454 55.109 A 34.184 34.184 0 0 0 107.201 47.8 A 34.542 34.542 0 0 0 106.716 41.891 A 25.795 25.795 0 0 0 103.751 33.45 Q 100.301 27.4 94.451 24.1 A 24.848 24.848 0 0 0 89.809 22.073 A 27.738 27.738 0 0 0 81.301 20.8 A 31.325 31.325 0 0 0 79.721 20.839 A 26.169 26.169 0 0 0 68.101 24.1 Q 62.201 27.4 58.801 33.5 A 26.023 26.023 0 0 0 56.051 41.09 A 35.006 35.006 0 0 0 55.401 48 A 34.82 34.82 0 0 0 55.666 52.354 A 27.451 27.451 0 0 0 58.751 62.15 Q 62.101 68.3 68.001 71.75 Z M 176.301 71.75 A 24.559 24.559 0 0 0 180.899 73.84 Q 184.954 75.2 189.601 75.2 Q 197.001 75.2 202.851 71.8 Q 208.701 68.4 212.101 62.25 A 26.255 26.255 0 0 0 214.754 55.109 A 34.184 34.184 0 0 0 215.501 47.8 A 34.542 34.542 0 0 0 215.016 41.891 A 25.795 25.795 0 0 0 212.051 33.45 Q 208.601 27.4 202.751 24.1 A 24.848 24.848 0 0 0 198.109 22.073 A 27.738 27.738 0 0 0 189.601 20.8 A 31.325 31.325 0 0 0 188.021 20.839 A 26.169 26.169 0 0 0 176.401 24.1 Q 170.501 27.4 167.101 33.5 A 26.023 26.023 0 0 0 164.351 41.09 A 35.006 35.006 0 0 0 163.701 48 A 34.82 34.82 0 0 0 163.966 52.354 A 27.451 27.451 0 0 0 167.051 62.15 Q 170.401 68.3 176.301 71.75 Z M 485.701 74 L 476.201 74 L 476.201 4 L 485.701 4 L 485.701 74 Z M 81.301 67.2 Q 89.201 67.2 93.601 61.85 A 18.802 18.802 0 0 0 97.42 53.76 A 27.105 27.105 0 0 0 98.001 48 Q 98.001 42.8 95.801 38.45 A 19.198 19.198 0 0 0 91.629 32.881 A 18.17 18.17 0 0 0 89.851 31.45 Q 86.101 28.8 81.301 28.8 A 19.249 19.249 0 0 0 76.075 29.472 A 14.037 14.037 0 0 0 69.001 34 A 17.878 17.878 0 0 0 65.327 41.374 Q 64.601 44.306 64.601 47.8 Q 64.601 53 66.801 57.45 A 19.437 19.437 0 0 0 70.331 62.49 A 17.627 17.627 0 0 0 72.751 64.55 Q 76.501 67.2 81.301 67.2 Z M 189.601 67.2 Q 197.501 67.2 201.901 61.85 A 18.802 18.802 0 0 0 205.72 53.76 A 27.105 27.105 0 0 0 206.301 48 Q 206.301 42.8 204.101 38.45 A 19.198 19.198 0 0 0 199.929 32.881 A 18.17 18.17 0 0 0 198.151 31.45 Q 194.401 28.8 189.601 28.8 A 19.249 19.249 0 0 0 184.375 29.472 A 14.037 14.037 0 0 0 177.301 34 A 17.878 17.878 0 0 0 173.627 41.374 Q 172.901 44.306 172.901 47.8 Q 172.901 53 175.101 57.45 A 19.437 19.437 0 0 0 178.631 62.49 A 17.627 17.627 0 0 0 181.051 64.55 Q 184.801 67.2 189.601 67.2 Z M 381.501 60.9 L 381.501 35.1 A 15.847 15.847 0 0 0 379.39 32.927 Q 378.269 31.964 376.87 31.066 A 28.139 28.139 0 0 0 376.201 30.65 Q 372.801 28.6 368.701 28.6 A 14.946 14.946 0 0 0 363.745 29.4 A 13.385 13.385 0 0 0 360.301 31.2 A 16.69 16.69 0 0 0 355.131 37.35 A 19.924 19.924 0 0 0 354.751 38.15 A 22.19 22.19 0 0 0 353.011 44.514 A 28.113 28.113 0 0 0 352.801 48 A 24.757 24.757 0 0 0 353.393 53.519 A 20.327 20.327 0 0 0 354.901 57.85 A 18.205 18.205 0 0 0 357.941 62.363 A 16.122 16.122 0 0 0 360.651 64.7 Q 364.301 67.2 368.801 67.2 Q 372.501 67.2 375.851 65.45 Q 379.201 63.7 381.501 60.9 Z M 433.501 13.4 L 420.301 47 L 446.601 47 L 433.501 13.4 Z" vector-effect="non-scaling-stroke"/></g></svg>